<?xml version="1.0" encoding="UTF-8"?>
<!DOCTYPE svg PUBLIC "-//W3C//DTD SVG 1.1//EN" "http://www.w3.org/Graphics/SVG/1.1/DTD/svg11.dtd">
<!-- Creator: CorelDRAW 2019 (64-Bit) -->
<svg xmlns="http://www.w3.org/2000/svg" xml:space="preserve" width="2.50235in" height="3.125in" version="1.1" style="shape-rendering:geometricPrecision; text-rendering:geometricPrecision; image-rendering:optimizeQuality; fill-rule:evenodd; clip-rule:evenodd"
viewBox="0 0 1530.75 1911.64"
 xmlns:xlink="http://www.w3.org/1999/xlink"
 xmlns:xodm="http://www.corel.com/coreldraw/odm/2003">
 <defs>
  <style type="text/css">
   <![CDATA[
    .fil0 {fill:#F58634}
   ]]>
  </style>
 </defs>
 <g id="Layer_x0020_1">
  <metadata id="CorelCorpID_0Corel-Layer"/>
  <g id="_2093235337008">
   <path class="fil0" d="M233.33 1911.64l75.11 0c92.15,-45.15 118.21,-32.75 175.86,-115.7 54.06,-77.78 47.85,-141.19 47.83,-249.63l0 -1189.47c0.06,-129.55 0.12,-238.01 -126.31,-315.91 -44.54,-27.44 -70.38,-23.75 -108.2,-40.93l-65.67 0c-37.05,17.36 -63.7,12.58 -104,38.1 -118.65,75.11 -127.65,177.24 -127.56,318.74l0 1189.47c-0.03,104.06 -7.49,170.2 45.34,248.31 64.29,95.04 138.31,94.75 187.61,117.02z"/>
   <path class="fil0" d="M1222.64 1911.64l74.81 0c51.74,-22.92 118.66,-21.09 184.35,-112.07 47.17,-65.33 48.96,-150.14 48.9,-244.77l-0 -1189.47c0.04,-125.09 5.84,-241.43 -122.44,-323.89 -44.7,-28.73 -67.8,-22.09 -109.12,-41.45l-65.67 0c-49.37,22.43 -115.3,18.99 -179.81,105.66 -57.3,76.98 -54.79,133.41 -54.7,242.68l0 1189.47c-0.01,100.22 -5.19,178.21 44.37,253.11 57.7,87.21 86,75 179.31,120.72z"/>
  </g>
 </g>
</svg>
