<?xml version="1.0" encoding="UTF-8"?>
<!DOCTYPE svg PUBLIC "-//W3C//DTD SVG 1.1//EN" "http://www.w3.org/Graphics/SVG/1.1/DTD/svg11.dtd">
<!-- Creator: CorelDRAW 2019 (64-Bit) -->
<svg xmlns="http://www.w3.org/2000/svg" xml:space="preserve" width="2.85964in" height="3.1691in" version="1.1" style="shape-rendering:geometricPrecision; text-rendering:geometricPrecision; image-rendering:optimizeQuality; fill-rule:evenodd; clip-rule:evenodd"
viewBox="0 0 717.73 795.39"
 xmlns:xlink="http://www.w3.org/1999/xlink"
 xmlns:xodm="http://www.corel.com/coreldraw/odm/2003">
 <defs>
  <style type="text/css">
   <![CDATA[
    .fil0 {fill:#F58634}
   ]]>
  </style>
 </defs>
 <g id="Layer_x0020_1">
  <metadata id="CorelCorpID_0Corel-Layer"/>
  <path class="fil0" d="M26.5 17.3l-0.53 0.42c-1.63,3.49 -4.2,5.33 -6.82,8.81 -2.24,2.96 -4,5.78 -5.94,9.32 -2.72,4.98 -6.15,17.68 -8.94,20.92l-2.07 12.68 -1.59 20.47 -0.07 18.29 0 17.62 0 18.29 0 17.62 0 18.29 0 17.62 0 18.29 0 17.62 0 18.29 0 17.62 0 18.29 0 17.62 0 18.29 0 17.62 0 18.29 0 17.62 0 18.29 0 17.62 0 18.29 0 17.62 0 18.29 0 17.62 0 18.29 0 17.62 0 18.29 0 17.62 0 18.29 0 17.62 0 18.29 0 17.62 0 18.29 0 17.62 0 18.29 0 17.62c-0,3.68 0.6,8.38 -0.54,11.27l4.71 27.49 4.06 13.41 2.03 2.84c8.05,14.36 12.91,23.16 28.85,32.14l4.73 2.57c1.1,0.76 0.97,0.65 1.7,1.38l15.08 3.54 20.29 0.4 14.11 -1.99c2.31,-2.01 16.18,-5.9 20.28,-7.66 7.49,-3.21 12.71,-7.17 19.82,-9.88l24.76 -14.7c4.35,-2.46 6.3,-4.3 9.45,-4.6 2.78,-3.79 9.13,-6.11 13.34,-8.53 4.62,-2.66 9.05,-5.24 13.68,-7.87 7.09,-4.03 21.27,-13.18 28.16,-15.52 1.54,-1.89 31.46,-19.11 34.22,-19.38l18.1 -11.2c5.65,-3.11 13.93,-8.72 19.87,-10.76 1.09,-1.86 32.05,-18.76 38.42,-22.49 3.2,-1.87 9.86,-6.32 12.83,-6.58 2.25,-3.08 5.86,-4.13 9.38,-6.19 2.91,-1.7 6.02,-3.52 9.12,-5.26 5.63,-3.15 13.85,-8.7 19.58,-10.68 2.1,-2.73 12.26,-7.39 16.43,-9.84 4.57,-2.69 13.39,-8.91 17.48,-9.26 3.01,-4.01 22.1,-13.44 27.56,-16.64 7.49,-4.39 21.29,-13.23 28.74,-15.96l34.74 -20.23 36.57 -20.64 39.2 -22.95c3.47,-1.96 9.73,-6.54 13.47,-6.88 2.82,-3.74 13.68,-8.72 18.51,-11.44 6.11,-3.44 13.01,-8.12 19.09,-10.41 1.36,-1.79 32.02,-19.22 33.88,-19.52 1.01,-1.51 -0.7,-0.85 2.93,-2.1 1.17,-2.22 4.63,-3.75 6.96,-5.61 3.07,-2.45 4.52,-4.47 7.59,-5.52 2,-3.31 4.28,-5.44 7.6,-7.43 1.07,-3.04 3.17,-4.47 5.51,-7.67 1.58,-2.17 3.67,-5.98 5.5,-7.34 0.69,-3.02 -0.07,-1.54 1.46,-1.99 0.35,-3.25 2.06,-5.54 3.45,-8.97 0.79,-1.95 2.68,-7.46 2.77,-7.56 1.3,-8.84 2,-13.05 1.63,-22.43l-1.63 -11.06c-2.5,-2.65 -3.57,-8 -5.1,-11.21 -7.71,-16.25 -23.24,-30.59 -37.92,-40.18 -4.37,-2.85 -17.5,-9.86 -19.46,-12.4 -2.78,-0.32 -49.73,-27.25 -51.39,-29.23 -5.13,-1.43 -14.29,-7.61 -19.6,-10.65 -4.27,-2.45 -15.99,-8.06 -18.44,-11.43 -5,-0.58 -12.52,-6.32 -17.47,-9.25 -4.15,-2.45 -14.16,-6.92 -16.46,-9.88 -1.04,-0.35 -51.7,-27.4 -55.23,-31.91 -3.08,-0.35 -32.93,-17.47 -34.07,-19.26 -5.03,-1.76 -22.33,-12.17 -28.91,-16.08l-9 -5.89c-2.39,-0.29 -50.21,-27.47 -51.86,-29.5 -5.86,-2.12 -14.49,-7.78 -20.22,-10.99 -4.75,-2.66 -16.37,-8.27 -18.97,-11.78 -4.99,-0.64 -12.14,-6.31 -16.91,-8.94 -2.71,-1.5 -14.73,-7.93 -15.71,-9.45 -8.61,-3.28 -20.2,-11.11 -28.83,-16.01 -3.69,-2.09 -25.09,-13.16 -27.71,-16.67 -3.25,-0.45 -30.03,-16.27 -34.24,-19.04 -2.04,-0.87 -35.13,-18.91 -37.7,-22.19 -3.32,-0.38 -13.16,-6.89 -16.73,-8.86 -3.32,-1.83 -14.82,-7.58 -16.37,-8.97 -5.84,-1.72 -11.26,-4.4 -17.71,-6.28 -6.33,-1.84 -12.17,-2.68 -18.92,-3.83l-14.86 -0.77c-1.5,1 -18.06,4.38 -22.34,6.38 -3.51,1.64 -6.5,3.29 -9.19,5.16 -3.64,2.53 -4.48,4.25 -8.18,5.76z"/>
 </g>
</svg>
